<svg width="14" height="15" viewBox="0 0 14 15" fill="none" xmlns="http://www.w3.org/2000/svg">
<g clip-path="url(#clip0_1_6715)">
<path d="M10.8348 12.2156H12.385C12.8333 12.2156 12.8333 11.7735 12.8333 11.3366C12.8333 10.9725 12.5664 10.6838 12.2537 10.3457C11.8114 9.86744 11.2775 9.29017 11.2775 8.26031V6.93401L10.8348 12.2156ZM10.8348 12.2156L10.8411 12.2025H9.6475H4.3525H3.1589L3.16524 12.2156H1.615C1.16666 12.2156 1.16666 11.7735 1.16666 11.3366C1.16666 10.9725 1.4336 10.6838 1.74634 10.3457C2.18862 9.86744 2.7225 9.29017 2.7225 8.26031V6.93401C2.72194 6.03761 3.06335 5.16725 3.69153 4.46366C4.162 3.93672 4.77272 3.52639 5.46404 3.26637L10.8348 12.2156ZM7.48486 13.7025H8.36726H9.09222C8.94139 13.8437 8.77201 13.9699 8.58686 14.0781C8.11613 14.3533 7.56429 14.5 7 14.5C6.4357 14.5 5.88386 14.3533 5.41313 14.0781C5.22799 13.9699 5.0586 13.8437 4.90777 13.7025H5.63273H6.51514M7.48486 13.7025C7.74411 13.6509 7.98954 13.5586 8.20838 13.4306C8.42791 13.3023 8.61196 13.1435 8.75616 12.9656H5.24384C5.38803 13.1435 5.57209 13.3023 5.79162 13.4306C6.01046 13.5586 6.25589 13.6509 6.51514 13.7025M7.48486 13.7025H6.51514M7.48486 13.7025C7.32738 13.7338 7.16481 13.75 7 13.75C6.83519 13.75 6.67261 13.7338 6.51514 13.7025M10.5275 6.93355V6.93401V8.26031C10.5275 9.40514 11.0526 10.1267 11.4938 10.6252C11.5907 10.7346 11.6695 10.8194 11.7371 10.8922C11.84 11.003 11.9171 11.0859 11.9927 11.1856C12.0654 11.2814 12.0807 11.3258 12.0833 11.3376C12.0833 11.3852 12.0833 11.4274 12.0828 11.4656H1.91715C1.91672 11.4274 1.91666 11.3852 1.91666 11.3376C1.91933 11.3258 1.93461 11.2814 2.00727 11.1856C2.08289 11.0859 2.15996 11.003 2.26289 10.8922C2.33051 10.8194 2.4093 10.7346 2.50618 10.6252C2.94744 10.1267 3.4725 9.40514 3.4725 8.26031L3.4725 6.93401L3.4725 6.93355C3.47206 6.23182 3.73862 5.53704 4.25099 4.96316C4.76513 4.38731 5.49756 3.96777 6.33865 3.79072L7 3.65151L7.66134 3.79072C8.50244 3.96777 9.23486 4.38731 9.749 4.96316C10.2614 5.53704 10.5279 6.23182 10.5275 6.93355ZM12.0838 11.341C12.0837 11.3409 12.0834 11.3398 12.0833 11.3377C12.0839 11.34 12.0839 11.341 12.0838 11.341ZM1.91621 11.341C1.9161 11.341 1.91614 11.34 1.91664 11.3377C1.91657 11.3398 1.91632 11.3409 1.91621 11.341ZM7.08333 2.8896L7 3.17491L6.91666 2.8896V1.27107C6.93192 1.26162 6.96032 1.25 7 1.25C7.03968 1.25 7.06807 1.26162 7.08333 1.27107V2.8896Z" fill="#6B7280" stroke="#6B7280" stroke-width="1.5"/>
</g>
<defs>
<clipPath id="clip0_1_6715">
<rect width="14" height="14" fill="white" transform="translate(0 0.5)"/>
</clipPath>
</defs>
</svg>
