<svg width="20" height="20" viewBox="0 0 20 20" fill="none" xmlns="http://www.w3.org/2000/svg">
<path d="M14.1798 17.6876C14.1798 17.7349 14.162 17.7802 14.1303 17.8136C14.0986 17.847 14.0555 17.8658 14.0107 17.8658H2.19483C2.14997 17.8658 2.10695 17.847 2.07523 17.8136C2.04351 17.7802 2.02569 17.7349 2.02569 17.6876V5.23878C2.02569 5.19152 2.04351 5.14619 2.07523 5.11277C2.10695 5.07935 2.14997 5.06058 2.19483 5.06058H9.46301L11.4887 2.92638H2.19483C1.61289 2.92694 1.05494 3.17075 0.643444 3.60429C0.231949 4.03783 0.000536352 4.62567 0 5.23878V17.6876C0.000536352 18.3007 0.231949 18.8885 0.643444 19.3221C1.05494 19.7556 1.61289 19.9994 2.19483 20H14.0107C14.5926 19.9994 15.1506 19.7556 15.5621 19.3221C15.9736 18.8885 16.205 18.3007 16.2055 17.6876V10.0301L14.1798 12.1643V17.6876Z" fill="#6B7280"/>
<path d="M19.1063 0.937299C18.5365 0.337147 17.7638 0 16.9581 0C16.1523 0 15.3796 0.337147 14.8098 0.937299L6.9309 9.23721C6.78968 9.38625 6.69347 9.57598 6.65439 9.7825L5.93831 13.5558C5.90827 13.7108 5.91134 13.871 5.94729 14.0246C5.98325 14.1783 6.0512 14.3216 6.14621 14.4442C6.24122 14.5667 6.36092 14.6655 6.49664 14.7333C6.63235 14.8012 6.78069 14.8363 6.9309 14.8363C6.99887 14.8361 7.06667 14.8293 7.13347 14.816L10.7139 14.0616C10.91 14.0201 11.0901 13.9184 11.2314 13.7692L19.1093 5.46928C19.392 5.17171 19.6161 4.81835 19.7689 4.4294C19.9218 4.04046 20.0003 3.62358 20 3.20262C19.9997 2.78167 19.9206 2.36491 19.7673 1.97619C19.6139 1.58748 19.3893 1.23444 19.1063 0.937299ZM17.6741 2.44618C17.7683 2.54529 17.843 2.66297 17.894 2.79252C17.945 2.92206 17.9712 3.06092 17.9712 3.20115C17.9712 3.34139 17.945 3.48025 17.894 3.60979C17.843 3.73933 17.7683 3.85702 17.6741 3.95613L17.1313 4.52703L15.6991 3.01815L16.242 2.44618C16.4319 2.24613 16.6895 2.13375 16.9581 2.13375C17.2266 2.13375 17.4842 2.24613 17.6741 2.44618ZM10.013 12.0277L8.22227 12.4054L8.58082 10.5177L14.2669 4.52703L15.6991 6.03591L10.013 12.0277Z" fill="#6B7280"/>
</svg>
