<svg width="18" height="17" viewBox="0 0 18 17" fill="none" xmlns="http://www.w3.org/2000/svg">
<path d="M16.4424 8.55143C16.458 8.56538 16.4784 8.57319 16.4997 8.573C16.5221 8.57281 16.5434 8.56382 16.559 8.54827L17.0536 9.04352L16.559 8.54827C16.5745 8.53275 16.5832 8.51194 16.5834 8.49038C16.5835 8.46985 16.576 8.44988 16.5621 8.4344L14.9004 6.7747L9.05999 0.941381C9.04424 0.925655 9.02268 0.916656 9.00002 0.916656C8.9774 0.916656 8.95588 0.925625 8.94014 0.941301L16.4424 8.55143ZM16.4424 8.55143L16.2049 8.31425L14.9249 7.0358V8.8449V15.1666C14.9249 15.4095 14.8283 15.6425 14.6561 15.8145C14.4839 15.9865 14.2501 16.0833 14.0062 16.0833H11.5031C11.4804 16.0833 11.4589 16.0743 11.4431 16.0586C11.4274 16.0429 11.4187 16.0218 11.4187 16V12.6666C11.4187 12.2464 11.2516 11.8436 10.9544 11.5467C10.6572 11.2499 10.2543 11.0833 9.83438 11.0833H8.16566C7.74576 11.0833 7.34287 11.2499 7.04568 11.5467C6.74845 11.8436 6.5813 12.2464 6.5813 12.6666V16C6.5813 16.0218 6.57264 16.0429 6.55692 16.0586L6.98098 16.4832L6.55692 16.0586C6.54117 16.0743 6.51962 16.0833 6.49695 16.0833H3.99387C3.74991 16.0833 3.51614 15.9865 3.34392 15.8145L2.81391 16.3452L3.34391 15.8145C3.17172 15.6425 3.07515 15.4095 3.07515 15.1666V8.8449V7.0358L1.79514 8.31425L1.55768 8.55142C1.54209 8.56538 1.52165 8.57319 1.5003 8.573C1.4779 8.57281 1.45664 8.56382 1.44107 8.54827C1.42553 8.53275 1.41688 8.51194 1.41669 8.49038C1.41651 8.46985 1.42402 8.44988 1.43791 8.43439L3.09963 6.7747L8.94006 0.941381L16.4424 8.55143Z" fill="#6B7280" stroke="#6B7280" stroke-width="1.5"/>
</svg>
