<svg width="14" height="15" viewBox="0 0 14 15" fill="none" xmlns="http://www.w3.org/2000/svg">
<path d="M8.51509 11.1C9.4191 11.0703 10.2774 10.6915 10.9151 10.042C11.5793 9.36553 11.95 8.45089 11.95 7.50001V4.6852H12.6C12.7679 4.6852 12.9318 4.753 13.0548 4.87828C13.1782 5.00403 13.25 5.17746 13.25 5.36112V10.3519C13.25 10.5355 13.1782 10.709 13.0548 10.8347L13.5899 11.3601L13.0548 10.8347C12.9318 10.96 12.7679 11.0278 12.6 11.0278H11.9H11.15V11.7778V13.1129L8.62221 11.1818L8.51509 11.1ZM2.85 8.92594V8.17594H2.1H1.4C1.2321 8.17594 1.06823 8.10813 0.945224 7.98285C0.821762 7.8571 0.75 7.68367 0.75 7.50001V2.50927C0.75 2.32561 0.821762 2.15218 0.945223 2.02643C1.06823 1.90115 1.2321 1.83334 1.4 1.83334H8.4C8.5679 1.83334 8.73177 1.90115 8.85478 2.02643C8.97824 2.15218 9.05 2.32561 9.05 2.50927V7.50001C9.05 7.68367 8.97824 7.8571 8.85478 7.98285C8.73177 8.10813 8.5679 8.17594 8.4 8.17594H5.8331H5.5794L5.37779 8.32995L2.85 10.2611V8.92594Z" fill="#6B7280" stroke="#6B7280" stroke-width="1.5"/>
</svg>
