<svg width="12" height="12" viewBox="0 0 12 12" fill="none" xmlns="http://www.w3.org/2000/svg">
<path d="M10.2667 5.46668H6.53333V1.73335C6.53333 1.5919 6.47714 1.45624 6.37712 1.35622C6.27711 1.2562 6.14145 1.20001 6 1.20001C5.85855 1.20001 5.7229 1.2562 5.62288 1.35622C5.52286 1.45624 5.46667 1.5919 5.46667 1.73335V5.46668H1.73333C1.59189 5.46668 1.45623 5.52287 1.35621 5.62289C1.25619 5.72291 1.2 5.85856 1.2 6.00001C1.2 6.14146 1.25619 6.27712 1.35621 6.37714C1.45623 6.47716 1.59189 6.53335 1.73333 6.53335H5.46667V10.2667C5.46667 10.4081 5.52286 10.5438 5.62288 10.6438C5.7229 10.7438 5.85855 10.8 6 10.8C6.14145 10.8 6.27711 10.7438 6.37712 10.6438C6.47714 10.5438 6.53333 10.4081 6.53333 10.2667V6.53335H10.2667C10.4081 6.53335 10.5438 6.47716 10.6438 6.37714C10.7438 6.27712 10.8 6.14146 10.8 6.00001C10.8 5.85856 10.7438 5.72291 10.6438 5.62289C10.5438 5.52287 10.4081 5.46668 10.2667 5.46668Z" fill="white"/>
</svg>
