<svg width="20" height="20" viewBox="0 0 20 20" fill="none" xmlns="http://www.w3.org/2000/svg">
<path d="M18.1481 4.21053H14.0741V2.10526C14.0741 1.54691 13.8595 1.01143 13.4774 0.616617C13.0954 0.221804 12.5773 0 12.037 0H7.96296C7.4227 0 6.90457 0.221804 6.52256 0.616617C6.14054 1.01143 5.92592 1.54691 5.92592 2.10526V4.21053H1.85185C1.58172 4.21053 1.32265 4.32143 1.13165 4.51884C0.940636 4.71624 0.833328 4.98398 0.833328 5.26316C0.833328 5.54233 0.940636 5.81007 1.13165 6.00748C1.32265 6.20489 1.58172 6.31579 1.85185 6.31579H2.87037V17.8947C2.87037 18.4531 3.08498 18.9886 3.467 19.3834C3.84902 19.7782 4.36715 20 4.9074 20H15.0926C15.6328 20 16.151 19.7782 16.533 19.3834C16.915 18.9886 17.1296 18.4531 17.1296 17.8947V6.31579H18.1481C18.4183 6.31579 18.6773 6.20489 18.8683 6.00748C19.0594 5.81007 19.1667 5.54233 19.1667 5.26316C19.1667 4.98398 19.0594 4.71624 18.8683 4.51884C18.6773 4.32143 18.4183 4.21053 18.1481 4.21053ZM7.96296 2.10526H12.037V4.21053H7.96296V2.10526ZM15.0926 17.8947H4.9074V6.31579H15.0926V17.8947Z" fill="#6B7280"/>
<path d="M7.96296 7.36842C7.69283 7.36842 7.43377 7.47932 7.24276 7.67673C7.05175 7.87414 6.94444 8.14188 6.94444 8.42105V15.7895C6.94444 16.0686 7.05175 16.3364 7.24276 16.5338C7.43377 16.7312 7.69283 16.8421 7.96296 16.8421C8.23309 16.8421 8.49215 16.7312 8.68316 16.5338C8.87417 16.3364 8.98148 16.0686 8.98148 15.7895V8.42105C8.98148 8.14188 8.87417 7.87414 8.68316 7.67673C8.49215 7.47932 8.23309 7.36842 7.96296 7.36842Z" fill="#6B7280"/>
<path d="M12.037 7.36842C11.7669 7.36842 11.5078 7.47932 11.3168 7.67673C11.1258 7.87414 11.0185 8.14188 11.0185 8.42105V15.7895C11.0185 16.0686 11.1258 16.3364 11.3168 16.5338C11.5078 16.7312 11.7669 16.8421 12.037 16.8421C12.3072 16.8421 12.5662 16.7312 12.7572 16.5338C12.9482 16.3364 13.0556 16.0686 13.0556 15.7895V8.42105C13.0556 8.14188 12.9482 7.87414 12.7572 7.67673C12.5662 7.47932 12.3072 7.36842 12.037 7.36842Z" fill="#6B7280"/>
</svg>
